<svg width="56" height="56" viewBox="0 0 56 56" fill="none" xmlns="http://www.w3.org/2000/svg">
<path fill-rule="evenodd" clip-rule="evenodd" d="M47.5207 44.9999L47.2746 29.7223L32.304 36.9752C30.955 37.472 29.6243 37.7089 28.3209 37.7165C26.9218 37.7242 25.5455 37.472 24.192 36.9752L9.89124 29.6459V45.1375C10.3014 53.1852 24.0689 55.6461 28.2935 55.9824C31.6796 56.2575 45.0552 53.2922 46.8143 48.6684C47.1926 47.6595 47.4296 46.4367 47.5207 44.9999ZM53.5865 18.7246V37.3955H53.9374C54.1789 37.3955 54.3749 37.7242 54.3749 38.1292V43.1504C54.3749 43.5478 54.1789 43.8841 53.9374 43.8841H53.5865V45.6419C54.0331 45.7795 54.3749 46.4444 54.3749 47.2316C54.3749 48.1181 53.9374 48.8518 53.4087 48.8518H51.6815C51.1529 48.8518 50.7154 48.1257 50.7154 47.2316C50.7154 46.4444 51.0572 45.7795 51.5038 45.6419V43.8841H51.1529C50.9159 43.8841 50.7154 43.5555 50.7154 43.1504V38.1292C50.7154 37.7242 50.9113 37.3955 51.1529 37.3955H51.5038V19.8175L33.2838 29.3096C29.9843 30.6242 26.6848 30.7159 23.3854 29.3096L3.27406 19.2443L1.45571 18.3349C-0.809261 16.7834 -0.244158 13.1379 1.86586 12.2972L24.6113 0.909708C26.9583 -0.213756 29.3007 -0.389536 31.6477 0.909708L53.9829 12.1596C56.412 13.1532 56.8905 16.921 54.065 18.4724L53.5865 18.7246Z" fill="#FF6B00"/>
</svg>
