<svg width="55" height="55" viewBox="0 0 55 55" fill="none" xmlns="http://www.w3.org/2000/svg">
<path fill-rule="evenodd" clip-rule="evenodd" d="M52.815 3.01316C55.412 5.80747 55.628 9.97691 53.8134 13.9585C49.4426 9.23191 44.3957 5.14083 38.835 1.63373C44.0664 -0.723664 49.6995 -0.340427 52.815 3.01316ZM29.4699 22.8298C30.2274 23.2054 30.8397 23.7874 31.2226 24.4959L38.5816 24.3778C39.6653 24.3596 40.5597 25.1529 40.5796 26.1502C40.5971 27.1464 39.7342 27.9686 38.6505 27.9869L31.0884 28.1082C30.369 29.2397 29.0343 30.0008 27.5058 30.0008C25.2159 30.0008 23.3592 28.2928 23.3592 26.1877C23.3592 24.7353 24.2432 23.4729 25.5429 22.8298L25.544 12.5383C25.544 11.541 26.421 10.7327 27.5058 10.7327C28.5906 10.7327 29.4699 11.541 29.4699 12.5383V22.8298ZM44.7962 10.2936C49.2207 14.3611 51.9567 19.9819 51.9567 26.1877C51.9567 32.3947 49.2207 38.0144 44.7962 42.0819C40.3706 46.1504 34.2576 48.6667 27.5058 48.6667C20.754 48.6667 14.6422 46.1504 10.2165 42.0819C5.79202 38.0144 3.05605 32.3947 3.05605 26.1877C3.05605 19.9808 5.79319 14.3611 10.2165 10.2936C14.1809 6.65016 19.4999 4.25412 25.4179 3.79145C27.2069 3.65082 29.0484 3.69483 30.8221 3.91597C36.2474 4.59227 41.1074 6.9035 44.7962 10.2936ZM10.6322 45.6727L16.4136 49.2313L13.2456 53.5811C12.176 55.0486 10.0145 55.4415 8.41823 54.4592C6.82195 53.4759 6.39573 51.491 7.4642 50.0225L10.6322 45.6727ZM47.5486 50.0225C48.6182 51.491 48.192 53.4759 46.5945 54.4592C44.9982 55.4415 42.8368 55.0486 41.7672 53.5811L38.5991 49.2313L44.3805 45.6727L47.5486 50.0225ZM2.2258 2.93695C5.39967 -0.479981 11.139 -0.870732 16.4708 1.53174C10.805 5.1054 5.66124 9.2727 1.20988 14.0895C-0.639786 10.0327 -0.420254 5.78385 2.2258 2.93695Z" fill="#00BC58"/>
</svg>
