<svg width="48" height="48" viewBox="0 0 48 48" fill="none" xmlns="http://www.w3.org/2000/svg">
<path fill-rule="evenodd" clip-rule="evenodd" d="M12.2745 0.0209096H46.6969V40.2633C46.6366 41.2474 45.3255 41.2709 43.9058 41.2084H11.7919C8.57444 41.4934 9.72065 45.6524 11.7919 45.4337H45.2129V44.0005H48V46.4295C48 46.8438 47.8305 47.2411 47.5288 47.5341C47.2271 47.827 46.8179 47.9916 46.3913 47.9916H11.9326C7.10649 48.058 5.51789 47.8081 5.51789 44.3793V39.412H1.83393C0.804357 39.412 0 38.5021 0 37.3852C0 36.2684 0.804357 35.3585 1.83393 35.3585H5.51789V32.125H1.83393C0.804357 32.125 0 31.219 0 30.0983C0 28.9775 0.804357 28.0754 1.83393 28.0754H5.51789V24.838H1.83393C0.804357 24.838 0 23.9321 0 22.8152C0 21.6983 0.804357 20.7884 1.83393 20.7884H5.51789V17.5745H1.83393C0.804357 17.5745 0 16.649 0 15.5282C0 14.4074 0.804357 13.5014 1.83393 13.5014H5.51789V10.268H1.83393C0.804357 10.268 0 9.37371 0 8.24513C0 7.11654 0.804357 6.21836 1.83393 6.21836H5.51789C5.50984 1.03624 5.44148 -0.182157 12.2745 0.0209096ZM18.7375 16.3678C18.4922 16.3678 18.2569 16.2732 18.0834 16.1047C17.9099 15.9363 17.8125 15.7078 17.8125 15.4696C17.8125 15.2314 17.9099 15.003 18.0834 14.8345C18.2569 14.6661 18.4922 14.5714 18.7375 14.5714H32.3351C32.5805 14.5714 32.8158 14.6661 32.9892 14.8345C33.1627 15.003 33.2602 15.2314 33.2602 15.4696C33.2602 15.7078 33.1627 15.9363 32.9892 16.1047C32.8158 16.2732 32.5805 16.3678 32.3351 16.3678H18.7375ZM18.7375 11.6348C18.5022 11.6197 18.2816 11.5183 18.1204 11.3512C17.9592 11.184 17.8696 10.9636 17.8696 10.7346C17.8696 10.5057 17.9592 10.2853 18.1204 10.1181C18.2816 9.95096 18.5022 9.84957 18.7375 9.83452H34.7764C34.9032 9.8264 35.0305 9.84365 35.1502 9.88521C35.2699 9.92677 35.3796 9.99176 35.4724 10.0761C35.5652 10.1605 35.6392 10.2625 35.6898 10.3758C35.7404 10.489 35.7665 10.6112 35.7665 10.7346C35.7665 10.8581 35.7404 10.9803 35.6898 11.0935C35.6392 11.2068 35.5652 11.3088 35.4724 11.3932C35.3796 11.4775 35.2699 11.5425 35.1502 11.5841C35.0305 11.6256 34.9032 11.6429 34.7764 11.6348H18.7375ZM16.3646 5.85909H37.1532C37.5078 5.86114 37.8472 5.9988 38.0979 6.24223C38.3486 6.48566 38.4904 6.81524 38.4925 7.1595V19.0624C38.4894 19.4067 38.3474 19.7361 38.097 19.9799C37.8467 20.2237 37.5078 20.3626 37.1532 20.3667H16.3646C16.0094 20.3646 15.6694 20.2264 15.4186 19.9821C15.1678 19.7379 15.0264 19.4073 15.0254 19.0624V7.13997C15.0317 6.7988 15.1755 6.47361 15.4258 6.23416C15.6762 5.9947 16.0132 5.86005 16.3646 5.85909Z" fill="#A39900" fill-opacity="0.71"/>
</svg>
