<svg width="58" height="54" viewBox="0 0 58 54" fill="none" xmlns="http://www.w3.org/2000/svg">
<path fill-rule="evenodd" clip-rule="evenodd" d="M37.5977 27.0812C36.8211 27.8224 35.913 28.4739 34.8845 29.0082L34.0789 31.5013H24.1218L23.5322 29.6629C22.1396 29.1223 20.9367 28.3567 19.9801 27.4138C17.9646 27.5943 15.9422 27.6915 13.9254 27.8773L14.0195 31.5013H5.0273C5.71251 30.5552 6.64551 29.7474 7.96333 29.1582C9.32406 28.551 11.1028 28.0389 13.0754 27.6133C13.6928 27.4803 14.3296 27.3557 14.9788 27.2385C10.9436 27.2586 6.80608 26.5078 6.15409 25.1066C11.2399 24.7919 13.11 21.2894 13.7357 17.1089C14.6922 10.7111 13.3661 3.90559 23.4616 0.793761C31.4778 -1.67923 41.8446 1.64906 42.9755 10.4598C42.9285 16.4458 45.135 24.6715 52.1587 25.1066C51.4445 26.6419 46.4763 27.3599 41.9899 27.1361C44.8235 27.7137 47.6142 28.3694 49.6366 29.1793C51.0057 29.7284 52.0203 30.534 52.7872 31.5013H43.6691L43.8393 27.9871C41.7339 27.7453 39.6782 27.4159 37.5977 27.0812ZM2.28369 32.5963H55.7163C57.0757 32.5963 58.1803 33.5677 57.9754 34.7546L55.0214 51.8427C54.8193 53.019 53.7493 54 52.1934 54H5.80664C4.25073 54 3.18069 53.019 2.97859 51.8427L0.0245692 34.7546C-0.180302 33.5677 0.924341 32.5963 2.28369 32.5963ZM28.7425 40.6478C30.6154 40.6478 32.134 41.8061 32.134 43.2358C32.134 44.6645 30.6154 45.8229 28.7425 45.8229C26.8682 45.8229 25.3497 44.6645 25.3497 43.2358C25.3497 41.8061 26.8682 40.6478 28.7425 40.6478ZM20.7456 26.549C21.5886 27.3979 22.6338 28.06 23.7841 28.5373C25.502 29.25 27.4593 29.5584 29.353 29.4802C31.2425 29.4021 33.067 28.9396 34.5204 28.1107C35.3828 27.6186 36.1151 26.9967 36.6536 26.2512C35.5199 25.8499 34.735 25.3146 34.5329 24.6388C32.6268 25.757 30.5047 26.437 28.3605 26.437C26.5028 26.437 24.7171 25.9312 23.0975 25.0749C22.8026 25.7095 21.9375 26.1973 20.7456 26.549ZM31.8336 6.50635C27.1188 10.1493 22.1437 11.5759 16.8932 12.5853C16.8157 13.0626 16.8434 12.7311 16.8434 13.2284C16.8434 18.733 22.2863 25.342 28.3605 25.342C34.4346 25.342 40.5794 18.733 40.5794 13.2284C40.5794 12.1566 40.4133 11.7321 40.0686 10.7639C35.4811 10.7237 33.6954 8.96561 31.8336 6.50635Z" fill="#FF0000" fill-opacity="0.48"/>
</svg>
